<?xml version="1.0" encoding="UTF-8" standalone="no"?>
<!DOCTYPE svg PUBLIC "-//W3C//DTD SVG 1.1//EN"
 "http://www.w3.org/Graphics/SVG/1.1/DTD/svg11.dtd">
<!-- Generated by graphviz version 7.0.0 (0)
 -->
<!-- Pages: 1 -->
<svg width="607pt" height="509pt"
 viewBox="0.00 0.00 606.50 509.00" xmlns="http://www.w3.org/2000/svg" xmlns:xlink="http://www.w3.org/1999/xlink">
<g id="graph0" class="graph" transform="scale(1 1) rotate(0) translate(4 505)">
<polygon fill="white" stroke="none" points="-4,4 -4,-505 602.5,-505 602.5,4 -4,4"/>
<!-- 1 -->
<g id="node1" class="node">
<title>1</title>
<polygon fill="#ff0000" stroke="#ff0000" points="482.5,-501 427.5,-501 427.5,-460 482.5,-460 482.5,-501"/>
<text text-anchor="middle" x="455" y="-489" font-family="Arial" font-size="10.00" fill="#ffffff">main</text>
<text text-anchor="middle" x="455" y="-478" font-family="Arial" font-size="10.00" fill="#ffffff">100.00%</text>
<text text-anchor="middle" x="455" y="-467" font-family="Arial" font-size="10.00" fill="#ffffff">(0.00%)</text>
</g>
<!-- 2 -->
<g id="node2" class="node">
<title>2</title>
<polygon fill="#f15c02" stroke="#f15c02" points="500,-328 410,-328 410,-276 500,-276 500,-328"/>
<text text-anchor="middle" x="455" y="-316" font-family="Arial" font-size="10.00" fill="#ffffff">check_sequence</text>
<text text-anchor="middle" x="455" y="-305" font-family="Arial" font-size="10.00" fill="#ffffff">90.57%</text>
<text text-anchor="middle" x="455" y="-294" font-family="Arial" font-size="10.00" fill="#ffffff">(0.00%)</text>
<text text-anchor="middle" x="455" y="-283" font-family="Arial" font-size="10.00" fill="#ffffff">1×</text>
</g>
<!-- 1&#45;&gt;2 -->
<g id="edge1" class="edge">
<title>1&#45;&gt;2</title>
<path fill="none" stroke="#f15c02" stroke-width="3.62" d="M455,-459.6C455,-431.48 455,-379.52 455,-343.19"/>
<polygon fill="#f15c02" stroke="#f15c02" stroke-width="3.62" points="458.33,-343.2 455,-333.7 451.68,-343.2 458.33,-343.2"/>
<text text-anchor="middle" x="472" y="-397" font-family="Arial" font-size="10.00" fill="#f15c02">90.57%</text>
<text text-anchor="middle" x="472" y="-386" font-family="Arial" font-size="10.00" fill="#f15c02">1×</text>
</g>
<!-- 6 -->
<g id="node3" class="node">
<title>6</title>
<polygon fill="#0d297b" stroke="#0d297b" points="429,-420 323,-420 323,-368 429,-368 429,-420"/>
<text text-anchor="middle" x="376" y="-408" font-family="Arial" font-size="10.00" fill="#ffffff">get_chip_sequences</text>
<text text-anchor="middle" x="376" y="-397" font-family="Arial" font-size="10.00" fill="#ffffff">6.40%</text>
<text text-anchor="middle" x="376" y="-386" font-family="Arial" font-size="10.00" fill="#ffffff">(0.00%)</text>
<text text-anchor="middle" x="376" y="-375" font-family="Arial" font-size="10.00" fill="#ffffff">1×</text>
</g>
<!-- 1&#45;&gt;6 -->
<g id="edge2" class="edge">
<title>1&#45;&gt;6</title>
<path fill="none" stroke="#0d297b" stroke-width="0.5" d="M429.19,-459.59C426,-456.81 422.86,-453.91 420,-451 411.74,-442.6 403.53,-432.69 396.48,-423.56"/>
<polygon fill="#0d297b" stroke="#0d297b" stroke-width="0.5" points="397.5,-422.88 394.4,-420.84 395.56,-424.36 397.5,-422.88"/>
<text text-anchor="middle" x="434" y="-443" font-family="Arial" font-size="10.00" fill="#0d297b">6.40%</text>
<text text-anchor="middle" x="434" y="-432" font-family="Arial" font-size="10.00" fill="#0d297b">1×</text>
</g>
<!-- 10 -->
<g id="node4" class="node">
<title>10</title>
<polygon fill="#0d1a77" stroke="#0d1a77" points="593.5,-420 504.5,-420 504.5,-368 593.5,-368 593.5,-420"/>
<text text-anchor="middle" x="549" y="-408" font-family="Arial" font-size="10.00" fill="#ffffff">chips_to_signals</text>
<text text-anchor="middle" x="549" y="-397" font-family="Arial" font-size="10.00" fill="#ffffff">3.03%</text>
<text text-anchor="middle" x="549" y="-386" font-family="Arial" font-size="10.00" fill="#ffffff">(0.00%)</text>
<text text-anchor="middle" x="549" y="-375" font-family="Arial" font-size="10.00" fill="#ffffff">1×</text>
</g>
<!-- 1&#45;&gt;10 -->
<g id="edge3" class="edge">
<title>1&#45;&gt;10</title>
<path fill="none" stroke="#0d1a77" stroke-width="0.5" d="M476.8,-459.9C489,-448.93 504.42,-435.07 517.88,-422.98"/>
<polygon fill="#0d1a77" stroke="#0d1a77" stroke-width="0.5" points="518.55,-424.02 520.33,-420.77 516.91,-422.2 518.55,-424.02"/>
<text text-anchor="middle" x="525" y="-443" font-family="Arial" font-size="10.00" fill="#0d1a77">3.03%</text>
<text text-anchor="middle" x="525" y="-432" font-family="Arial" font-size="10.00" fill="#0d1a77">1×</text>
</g>
<!-- 3 -->
<g id="node5" class="node">
<title>3</title>
<polygon fill="#ec7703" stroke="#ec7703" points="540,-236 472,-236 472,-184 540,-184 540,-236"/>
<text text-anchor="middle" x="506" y="-224" font-family="Arial" font-size="10.00" fill="#ffffff">dot_product</text>
<text text-anchor="middle" x="506" y="-213" font-family="Arial" font-size="10.00" fill="#ffffff">87.60%</text>
<text text-anchor="middle" x="506" y="-202" font-family="Arial" font-size="10.00" fill="#ffffff">(33.33%)</text>
<text text-anchor="middle" x="506" y="-191" font-family="Arial" font-size="10.00" fill="#ffffff">24552×</text>
</g>
<!-- 2&#45;&gt;3 -->
<g id="edge4" class="edge">
<title>2&#45;&gt;3</title>
<path fill="none" stroke="#ec7703" stroke-width="3.5" d="M470.77,-275.85C472.56,-272.88 474.34,-269.89 476,-267 479.31,-261.25 482.72,-255.12 486,-249.09"/>
<polygon fill="#ec7703" stroke="#ec7703" stroke-width="3.5" points="488.83,-250.78 490.38,-240.94 483.03,-247.66 488.83,-250.78"/>
<text text-anchor="middle" x="505" y="-259" font-family="Arial" font-size="10.00" fill="#ec7703">87.60%</text>
<text text-anchor="middle" x="505" y="-248" font-family="Arial" font-size="10.00" fill="#ec7703">24552×</text>
</g>
<!-- 8 -->
<g id="node6" class="node">
<title>8</title>
<polygon fill="#0d2279" stroke="#0d2279" points="342.5,-236 127.5,-236 127.5,-184 342.5,-184 342.5,-236"/>
<text text-anchor="middle" x="235" y="-224" font-family="Arial" font-size="10.00" fill="#ffffff">__gnu_cxx::__normal_iterator std::_V2::rotate</text>
<text text-anchor="middle" x="235" y="-213" font-family="Arial" font-size="10.00" fill="#ffffff">4.84%</text>
<text text-anchor="middle" x="235" y="-202" font-family="Arial" font-size="10.00" fill="#ffffff">(0.00%)</text>
<text text-anchor="middle" x="235" y="-191" font-family="Arial" font-size="10.00" fill="#ffffff">73656×</text>
</g>
<!-- 2&#45;&gt;8 -->
<g id="edge5" class="edge">
<title>2&#45;&gt;8</title>
<path fill="none" stroke="#0d1375" stroke-width="0.5" d="M409.75,-277.6C408.16,-277.03 406.57,-276.49 405,-276 378,-267.57 368.92,-275.68 342,-267 320.39,-260.03 297.92,-248.94 279.18,-238.46"/>
<polygon fill="#0d1375" stroke="#0d1375" stroke-width="0.5" points="279.79,-237.4 276.14,-236.74 278.59,-239.53 279.79,-237.4"/>
<text text-anchor="middle" x="358.5" y="-259" font-family="Arial" font-size="10.00" fill="#0d1375">1.61%</text>
<text text-anchor="middle" x="358.5" y="-248" font-family="Arial" font-size="10.00" fill="#0d1375">24552×</text>
</g>
<!-- 11 -->
<g id="node7" class="node">
<title>11</title>
<polygon fill="#0d1a77" stroke="#0d1a77" points="553.5,-52 364.5,-52 364.5,0 553.5,0 553.5,-52"/>
<text text-anchor="middle" x="459" y="-40" font-family="Arial" font-size="10.00" fill="#ffffff">__gnu_cxx::__normal_iterator::operator&#45;</text>
<text text-anchor="middle" x="459" y="-29" font-family="Arial" font-size="10.00" fill="#ffffff">3.03%</text>
<text text-anchor="middle" x="459" y="-18" font-family="Arial" font-size="10.00" fill="#ffffff">(3.03%)</text>
<text text-anchor="middle" x="459" y="-7" font-family="Arial" font-size="10.00" fill="#ffffff">245520×</text>
</g>
<!-- 2&#45;&gt;11 -->
<g id="edge6" class="edge">
<title>2&#45;&gt;11</title>
<path fill="none" stroke="#0d0e73" stroke-width="0.5" d="M500.49,-278.2C502.01,-277.46 503.52,-276.72 505,-276 513.4,-271.91 516.98,-273.16 524,-267 536.33,-256.19 539.37,-251.73 544,-236 550.87,-212.68 543.25,-100.34 539,-92 531.51,-77.3 519.04,-64.76 506.15,-54.73"/>
<polygon fill="#0d0e73" stroke="#0d0e73" stroke-width="0.5" points="506.99,-53.83 503.46,-52.69 505.51,-55.78 506.99,-53.83"/>
<text text-anchor="middle" x="563.5" y="-167" font-family="Arial" font-size="10.00" fill="#0d0e73">0.30%</text>
<text text-anchor="middle" x="563.5" y="-156" font-family="Arial" font-size="10.00" fill="#0d0e73">24552×</text>
</g>
<!-- 14 -->
<g id="node8" class="node">
<title>14</title>
<polygon fill="#0d1a77" stroke="#0d1a77" points="463,-236 371,-236 371,-184 463,-184 463,-236"/>
<text text-anchor="middle" x="417" y="-224" font-family="Arial" font-size="10.00" fill="#ffffff">std::vector::begin</text>
<text text-anchor="middle" x="417" y="-213" font-family="Arial" font-size="10.00" fill="#ffffff">3.03%</text>
<text text-anchor="middle" x="417" y="-202" font-family="Arial" font-size="10.00" fill="#ffffff">(3.03%)</text>
<text text-anchor="middle" x="417" y="-191" font-family="Arial" font-size="10.00" fill="#ffffff">73955×</text>
</g>
<!-- 2&#45;&gt;14 -->
<g id="edge7" class="edge">
<title>2&#45;&gt;14</title>
<path fill="none" stroke="#0d1174" stroke-width="0.5" d="M444.41,-275.93C439.72,-264.81 434.16,-251.65 429.29,-240.1"/>
<polygon fill="#0d1174" stroke="#0d1174" stroke-width="0.5" points="430.44,-239.69 427.95,-236.94 428.19,-240.65 430.44,-239.69"/>
<text text-anchor="middle" x="457.5" y="-259" font-family="Arial" font-size="10.00" fill="#0d1174">1.01%</text>
<text text-anchor="middle" x="457.5" y="-248" font-family="Arial" font-size="10.00" fill="#0d1174">24552×</text>
</g>
<!-- 7 -->
<g id="node11" class="node">
<title>7</title>
<polygon fill="#0d297b" stroke="#0d297b" points="401,-328 303,-328 303,-276 401,-276 401,-328"/>
<text text-anchor="middle" x="352" y="-316" font-family="Arial" font-size="10.00" fill="#ffffff">generate_chip_seq</text>
<text text-anchor="middle" x="352" y="-305" font-family="Arial" font-size="10.00" fill="#ffffff">6.40%</text>
<text text-anchor="middle" x="352" y="-294" font-family="Arial" font-size="10.00" fill="#ffffff">(0.00%)</text>
<text text-anchor="middle" x="352" y="-283" font-family="Arial" font-size="10.00" fill="#ffffff">24×</text>
</g>
<!-- 6&#45;&gt;7 -->
<g id="edge10" class="edge">
<title>6&#45;&gt;7</title>
<path fill="none" stroke="#0d297b" stroke-width="0.5" d="M369.31,-367.93C366.35,-356.81 362.84,-343.65 359.76,-332.1"/>
<polygon fill="#0d297b" stroke="#0d297b" stroke-width="0.5" points="361.01,-332.05 358.93,-328.98 358.65,-332.68 361.01,-332.05"/>
<text text-anchor="middle" x="381" y="-351" font-family="Arial" font-size="10.00" fill="#0d297b">6.40%</text>
<text text-anchor="middle" x="381" y="-340" font-family="Arial" font-size="10.00" fill="#0d297b">24×</text>
</g>
<!-- 13 -->
<g id="node14" class="node">
<title>13</title>
<polygon fill="#0d1a77" stroke="#0d1a77" points="598.5,-328 509.5,-328 509.5,-276 598.5,-276 598.5,-328"/>
<text text-anchor="middle" x="554" y="-316" font-family="Arial" font-size="10.00" fill="#ffffff">void std::replace</text>
<text text-anchor="middle" x="554" y="-305" font-family="Arial" font-size="10.00" fill="#ffffff">3.03%</text>
<text text-anchor="middle" x="554" y="-294" font-family="Arial" font-size="10.00" fill="#ffffff">(3.03%)</text>
<text text-anchor="middle" x="554" y="-283" font-family="Arial" font-size="10.00" fill="#ffffff">24×</text>
</g>
<!-- 10&#45;&gt;13 -->
<g id="edge18" class="edge">
<title>10&#45;&gt;13</title>
<path fill="none" stroke="#0d1a77" stroke-width="0.5" d="M550.39,-367.93C551.01,-356.91 551.73,-343.88 552.37,-332.4"/>
<polygon fill="#0d1a77" stroke="#0d1a77" stroke-width="0.5" points="553.58,-332.57 552.56,-329 551.14,-332.43 553.58,-332.57"/>
<text text-anchor="middle" x="567" y="-351" font-family="Arial" font-size="10.00" fill="#0d1a77">3.03%</text>
<text text-anchor="middle" x="567" y="-340" font-family="Arial" font-size="10.00" fill="#0d1a77">24×</text>
</g>
<!-- 4 -->
<g id="node9" class="node">
<title>4</title>
<polygon fill="#0ba35e" stroke="#0ba35e" points="110,-144 0,-144 0,-92 110,-92 110,-144"/>
<text text-anchor="middle" x="55" y="-132" font-family="Arial" font-size="10.00" fill="#ffffff">std::vector::operator[]</text>
<text text-anchor="middle" x="55" y="-121" font-family="Arial" font-size="10.00" fill="#ffffff">36.36%</text>
<text text-anchor="middle" x="55" y="-110" font-family="Arial" font-size="10.00" fill="#ffffff">(36.36%)</text>
<text text-anchor="middle" x="55" y="-99" font-family="Arial" font-size="10.00" fill="#ffffff">50552616×</text>
</g>
<!-- 3&#45;&gt;4 -->
<g id="edge8" class="edge">
<title>3&#45;&gt;4</title>
<path fill="none" stroke="#0ba25f" stroke-width="1.45" d="M471.8,-186.46C470.2,-185.6 468.59,-184.77 467,-184 456,-178.66 452.35,-179.55 441,-175 419.22,-166.26 415.84,-158.37 393,-153 334.97,-139.35 186.78,-155.93 118.34,-144.66"/>
<polygon fill="#0ba25f" stroke="#0ba25f" stroke-width="1.45" points="118.84,-142.62 112.55,-143.55 118.05,-146.74 118.84,-142.62"/>
<text text-anchor="middle" x="465.5" y="-167" font-family="Arial" font-size="10.00" fill="#0ba25f">36.13%</text>
<text text-anchor="middle" x="465.5" y="-156" font-family="Arial" font-size="10.00" fill="#0ba25f">50233392×</text>
</g>
<!-- 5 -->
<g id="node10" class="node">
<title>5</title>
<polygon fill="#0c688a" stroke="#0c688a" points="534.5,-144 447.5,-144 447.5,-92 534.5,-92 534.5,-144"/>
<text text-anchor="middle" x="491" y="-132" font-family="Arial" font-size="10.00" fill="#ffffff">std::vector::size</text>
<text text-anchor="middle" x="491" y="-121" font-family="Arial" font-size="10.00" fill="#ffffff">18.18%</text>
<text text-anchor="middle" x="491" y="-110" font-family="Arial" font-size="10.00" fill="#ffffff">(18.18%)</text>
<text text-anchor="middle" x="491" y="-99" font-family="Arial" font-size="10.00" fill="#ffffff">25216101×</text>
</g>
<!-- 3&#45;&gt;5 -->
<g id="edge9" class="edge">
<title>3&#45;&gt;5</title>
<path fill="none" stroke="#0c688a" stroke-width="0.73" d="M496.16,-183.6C495.31,-180.73 494.56,-177.82 494,-175 492.36,-166.78 491.49,-157.75 491.05,-149.39"/>
<polygon fill="#0c688a" stroke="#0c688a" stroke-width="0.73" points="492.56,-149.61 490.87,-145.38 489.56,-149.74 492.56,-149.61"/>
<text text-anchor="middle" x="518.5" y="-167" font-family="Arial" font-size="10.00" fill="#0c688a">18.13%</text>
<text text-anchor="middle" x="518.5" y="-156" font-family="Arial" font-size="10.00" fill="#0c688a">25141248×</text>
</g>
<!-- 9 -->
<g id="node12" class="node">
<title>9</title>
<polygon fill="#0d2279" stroke="#0d2279" points="345,-144 119,-144 119,-92 345,-92 345,-144"/>
<text text-anchor="middle" x="232" y="-132" font-family="Arial" font-size="10.00" fill="#ffffff">__gnu_cxx::__normal_iterator std::_V2::__rotate</text>
<text text-anchor="middle" x="232" y="-121" font-family="Arial" font-size="10.00" fill="#ffffff">4.84%</text>
<text text-anchor="middle" x="232" y="-110" font-family="Arial" font-size="10.00" fill="#ffffff">(0.00%)</text>
<text text-anchor="middle" x="232" y="-99" font-family="Arial" font-size="10.00" fill="#ffffff">73656×</text>
</g>
<!-- 8&#45;&gt;9 -->
<g id="edge15" class="edge">
<title>8&#45;&gt;9</title>
<path fill="none" stroke="#0d2279" stroke-width="0.5" d="M234.16,-183.93C233.8,-172.91 233.36,-159.88 232.98,-148.4"/>
<polygon fill="#0d2279" stroke="#0d2279" stroke-width="0.5" points="234.21,-148.46 232.87,-145 231.76,-148.54 234.21,-148.46"/>
<text text-anchor="middle" x="250.5" y="-167" font-family="Arial" font-size="10.00" fill="#0d2279">4.84%</text>
<text text-anchor="middle" x="250.5" y="-156" font-family="Arial" font-size="10.00" fill="#0d2279">73656×</text>
</g>
<!-- 7&#45;&gt;8 -->
<g id="edge12" class="edge">
<title>7&#45;&gt;8</title>
<path fill="none" stroke="#0d1a77" stroke-width="0.5" d="M302.58,-293.11C285.31,-288.16 267.01,-280.1 254,-267 246.91,-259.86 242.46,-249.98 239.68,-240.51"/>
<polygon fill="#0d1a77" stroke="#0d1a77" stroke-width="0.5" points="240.88,-240.26 238.78,-237.21 238.52,-240.91 240.88,-240.26"/>
<text text-anchor="middle" x="270.5" y="-259" font-family="Arial" font-size="10.00" fill="#0d1a77">3.23%</text>
<text text-anchor="middle" x="270.5" y="-248" font-family="Arial" font-size="10.00" fill="#0d1a77">49104×</text>
</g>
<!-- 7&#45;&gt;11 -->
<g id="edge13" class="edge">
<title>7&#45;&gt;11</title>
<path fill="none" stroke="#0d0f74" stroke-width="0.5" d="M351.14,-275.65C350.22,-239.4 349.87,-174.74 358,-153 372.45,-114.4 403.61,-78.57 427.53,-55.07"/>
<polygon fill="#0d0f74" stroke="#0d0f74" stroke-width="0.5" points="428.21,-56.12 429.87,-52.8 426.5,-54.36 428.21,-56.12"/>
<text text-anchor="middle" x="374.5" y="-167" font-family="Arial" font-size="10.00" fill="#0d0f74">0.61%</text>
<text text-anchor="middle" x="374.5" y="-156" font-family="Arial" font-size="10.00" fill="#0d0f74">49104×</text>
</g>
<!-- 7&#45;&gt;14 -->
<g id="edge14" class="edge">
<title>7&#45;&gt;14</title>
<path fill="none" stroke="#0d1575" stroke-width="0.5" d="M370.11,-275.93C378.28,-264.61 387.97,-251.19 396.42,-239.5"/>
<polygon fill="#0d1575" stroke="#0d1575" stroke-width="0.5" points="397.27,-240.42 398.32,-236.86 395.28,-238.98 397.27,-240.42"/>
<text text-anchor="middle" x="409.5" y="-259" font-family="Arial" font-size="10.00" fill="#0d1575">2.01%</text>
<text text-anchor="middle" x="409.5" y="-248" font-family="Arial" font-size="10.00" fill="#0d1575">49104×</text>
</g>
<!-- 7&#45;&gt;4 -->
<g id="edge11" class="edge">
<title>7&#45;&gt;4</title>
<path fill="none" stroke="#0d0e73" stroke-width="0.5" d="M302.6,-295.08C234.14,-285.89 115.42,-266.05 85,-236 61.78,-213.06 55.7,-174.75 54.51,-148.25"/>
<polygon fill="#0d0e73" stroke="#0d0e73" stroke-width="0.5" points="55.74,-148.32 54.39,-144.86 53.29,-148.41 55.74,-148.32"/>
<text text-anchor="middle" x="104" y="-213" font-family="Arial" font-size="10.00" fill="#0d0e73">0.23%</text>
<text text-anchor="middle" x="104" y="-202" font-family="Arial" font-size="10.00" fill="#0d0e73">319176×</text>
</g>
<!-- 9&#45;&gt;11 -->
<g id="edge16" class="edge">
<title>9&#45;&gt;11</title>
<path fill="none" stroke="#0d1475" stroke-width="0.5" d="M262.58,-91.71C277.31,-80.73 295.71,-68.65 314,-61 333.22,-52.96 339.67,-56.55 360,-52 360.09,-51.98 360.17,-51.96 360.26,-51.94"/>
<polygon fill="#0d1475" stroke="#0d1475" stroke-width="0.5" points="360.3,-53.19 363.44,-51.22 359.76,-50.8 360.3,-53.19"/>
<text text-anchor="middle" x="333" y="-75" font-family="Arial" font-size="10.00" fill="#0d1475">1.82%</text>
<text text-anchor="middle" x="333" y="-64" font-family="Arial" font-size="10.00" fill="#0d1475">147312×</text>
</g>
<!-- 12 -->
<g id="node13" class="node">
<title>12</title>
<polygon fill="#0d1a77" stroke="#0d1a77" points="355.5,-52 44.5,-52 44.5,0 355.5,0 355.5,-52"/>
<text text-anchor="middle" x="200" y="-40" font-family="Arial" font-size="10.00" fill="#ffffff">__gnu_cxx::__normal_iterator::difference_type __gnu_cxx::operator&#45;</text>
<text text-anchor="middle" x="200" y="-29" font-family="Arial" font-size="10.00" fill="#ffffff">3.03%</text>
<text text-anchor="middle" x="200" y="-18" font-family="Arial" font-size="10.00" fill="#ffffff">(3.03%)</text>
<text text-anchor="middle" x="200" y="-7" font-family="Arial" font-size="10.00" fill="#ffffff">221243×</text>
</g>
<!-- 9&#45;&gt;12 -->
<g id="edge17" class="edge">
<title>9&#45;&gt;12</title>
<path fill="none" stroke="#0d1a77" stroke-width="0.5" d="M219.49,-91.57C218.25,-88.71 217.05,-85.81 216,-83 212.77,-74.39 209.81,-64.82 207.34,-56.07"/>
<polygon fill="#0d1a77" stroke="#0d1a77" stroke-width="0.5" points="208.64,-56.14 206.52,-53.1 206.27,-56.8 208.64,-56.14"/>
<text text-anchor="middle" x="235" y="-75" font-family="Arial" font-size="10.00" fill="#0d1a77">3.03%</text>
<text text-anchor="middle" x="235" y="-64" font-family="Arial" font-size="10.00" fill="#0d1a77">220968×</text>
</g>
</g>
</svg>
